<svg width="8" height="10" viewBox="0 0 8 10" fill="none" xmlns="http://www.w3.org/2000/svg">
<path d="M4 9.08618C2.88333 9.08618 1.9375 8.69868 1.1625 7.92368C0.3875 7.14868 0 6.20285 0 5.08618C0 4.14452 0.279167 3.24035 0.8375 2.37368C1.39583 1.50702 2.1625 0.748684 3.1375 0.0986842C3.32083 -0.0263158 3.51042 -0.0325658 3.70625 0.0799342C3.90208 0.192434 4 0.361184 4 0.586184V1.23618C4 1.51952 4.09792 1.75702 4.29375 1.94868C4.48958 2.14035 4.72917 2.23618 5.0125 2.23618C5.15417 2.23618 5.28958 2.20493 5.41875 2.14243C5.54792 2.07993 5.6625 1.99035 5.7625 1.87368C5.82917 1.79035 5.91458 1.73827 6.01875 1.71743C6.12292 1.6966 6.22083 1.71952 6.3125 1.78618C6.8375 2.16118 7.25 2.64035 7.55 3.22368C7.85 3.80702 8 4.42785 8 5.08618C8 6.20285 7.6125 7.14868 6.8375 7.92368C6.0625 8.69868 5.11667 9.08618 4 9.08618ZM1 5.08618C1 5.51952 1.0875 5.92993 1.2625 6.31743C1.4375 6.70493 1.6875 7.04452 2.0125 7.33618C2.00417 7.29452 2 7.25702 2 7.22368V7.11118C2 6.84452 2.05 6.59452 2.15 6.36118C2.25 6.12785 2.39583 5.91535 2.5875 5.72368L4 4.33618L5.4125 5.72368C5.60417 5.91535 5.75 6.12785 5.85 6.36118C5.95 6.59452 6 6.84452 6 7.11118V7.22368C6 7.25702 5.99583 7.29452 5.9875 7.33618C6.3125 7.04452 6.5625 6.70493 6.7375 6.31743C6.9125 5.92993 7 5.51952 7 5.08618C7 4.66952 6.92292 4.27577 6.76875 3.90493C6.61458 3.5341 6.39167 3.20285 6.1 2.91118C5.93333 3.01952 5.75833 3.10077 5.575 3.15493C5.39167 3.2091 5.20417 3.23618 5.0125 3.23618C4.49583 3.23618 4.04792 3.06535 3.66875 2.72368C3.28958 2.38202 3.07083 1.96118 3.0125 1.46118C2.3625 2.01118 1.86458 2.5966 1.51875 3.21743C1.17292 3.83827 1 4.46118 1 5.08618ZM4 5.73618L3.2875 6.43618C3.19583 6.52785 3.125 6.63202 3.075 6.74868C3.025 6.86535 3 6.98618 3 7.11118C3 7.37785 3.09792 7.60702 3.29375 7.79868C3.48958 7.99035 3.725 8.08618 4 8.08618C4.275 8.08618 4.51042 7.99035 4.70625 7.79868C4.90208 7.60702 5 7.37785 5 7.11118C5 6.97785 4.975 6.85493 4.925 6.74243C4.875 6.62993 4.80417 6.52785 4.7125 6.43618L4 5.73618Z" fill="#090F1F" fill-opacity="0.5"/>
</svg>
