<svg width="32" height="24" viewBox="0 0 32 24" fill="none" xmlns="http://www.w3.org/2000/svg">
<rect width="32" height="24" rx="4" fill="white"/>
<rect x="0.5" y="0.5" width="31" height="23" rx="3.5" stroke="black" stroke-opacity="0.1"/>
<mask id="mask0_65106_481" style="mask-type:alpha" maskUnits="userSpaceOnUse" x="8" y="4" width="16" height="16">
<rect x="8" y="4" width="16" height="16" fill="#D9D9D9"/>
</mask>
<g mask="url(#mask0_65106_481)">
<path d="M15.3346 7.99996H14.0013C13.8124 7.99996 13.6541 7.93607 13.5263 7.80829C13.3985 7.68052 13.3346 7.52218 13.3346 7.33329C13.3346 7.1444 13.3985 6.98607 13.5263 6.85829C13.6541 6.73052 13.8124 6.66663 14.0013 6.66663H15.3346V5.33329C15.3346 5.1444 15.3985 4.98607 15.5263 4.85829C15.6541 4.73051 15.8124 4.66663 16.0013 4.66663C16.1902 4.66663 16.3485 4.73051 16.4763 4.85829C16.6041 4.98607 16.668 5.1444 16.668 5.33329V6.66663H18.0013C18.1902 6.66663 18.3485 6.73052 18.4763 6.85829C18.6041 6.98607 18.668 7.1444 18.668 7.33329C18.668 7.52218 18.6041 7.68052 18.4763 7.80829C18.3485 7.93607 18.1902 7.99996 18.0013 7.99996H16.668V9.33329C16.668 9.52218 16.6041 9.68052 16.4763 9.80829C16.3485 9.93607 16.1902 9.99996 16.0013 9.99996C15.8124 9.99996 15.6541 9.93607 15.5263 9.80829C15.3985 9.68052 15.3346 9.52218 15.3346 9.33329V7.99996ZM12.668 18.6666C12.3013 18.6666 11.9874 18.5361 11.7263 18.275C11.4652 18.0138 11.3346 17.7 11.3346 17.3333C11.3346 16.9666 11.4652 16.6527 11.7263 16.3916C11.9874 16.1305 12.3013 16 12.668 16C13.0346 16 13.3485 16.1305 13.6096 16.3916C13.8707 16.6527 14.0013 16.9666 14.0013 17.3333C14.0013 17.7 13.8707 18.0138 13.6096 18.275C13.3485 18.5361 13.0346 18.6666 12.668 18.6666ZM19.3346 18.6666C18.968 18.6666 18.6541 18.5361 18.393 18.275C18.1319 18.0138 18.0013 17.7 18.0013 17.3333C18.0013 16.9666 18.1319 16.6527 18.393 16.3916C18.6541 16.1305 18.968 16 19.3346 16C19.7013 16 20.0152 16.1305 20.2763 16.3916C20.5374 16.6527 20.668 16.9666 20.668 17.3333C20.668 17.7 20.5374 18.0138 20.2763 18.275C20.0152 18.5361 19.7013 18.6666 19.3346 18.6666ZM10.0013 6.66663H9.33464C9.14575 6.66663 8.98741 6.60274 8.85964 6.47496C8.73186 6.34718 8.66797 6.18885 8.66797 5.99996C8.66797 5.81107 8.73186 5.65274 8.85964 5.52496C8.98741 5.39718 9.14575 5.33329 9.33464 5.33329H10.4346C10.5569 5.33329 10.6735 5.36663 10.7846 5.43329C10.8957 5.49996 10.9791 5.5944 11.0346 5.71663L13.6846 11.3333H18.3513L20.768 6.99996C20.8235 6.88885 20.9013 6.80551 21.0013 6.74996C21.1013 6.6944 21.2124 6.66663 21.3346 6.66663C21.5902 6.66663 21.7819 6.77496 21.9096 6.99163C22.0374 7.20829 22.0402 7.42774 21.918 7.64996L19.5346 11.9666C19.4124 12.1888 19.2485 12.3611 19.043 12.4833C18.8374 12.6055 18.6124 12.6666 18.368 12.6666H13.4013L12.668 14H20.0013C20.1902 14 20.3485 14.0638 20.4763 14.1916C20.6041 14.3194 20.668 14.4777 20.668 14.6666C20.668 14.8555 20.6041 15.0138 20.4763 15.1416C20.3485 15.2694 20.1902 15.3333 20.0013 15.3333H12.668C12.168 15.3333 11.7874 15.1166 11.5263 14.6833C11.2652 14.25 11.2569 13.8111 11.5013 13.3666L12.4013 11.7333L10.0013 6.66663Z" fill="#1C1B1F"/>
</g>
</svg>
